<svg width="38" height="45" viewBox="0 0 38 45" fill="none" xmlns="http://www.w3.org/2000/svg">
<path d="M35.4648 21.0949C31.5849 22.0569 26.3067 22.7829 18.9993 22.7829C11.5194 22.7829 6.41453 22.0569 2.53459 21.0949C-0.296681 20.3923 -0.279654 6.41485 16.5813 5.17456C17.5574 3.81326 17.0183 1.1421 16.4095 0.38507C16.2784 0.222471 16.4302 -0.0270997 16.6317 0.00239504C16.9731 0.0499514 17.307 0.14301 17.6248 0.279192C20.2169 1.40377 21.4966 4.49315 21.778 5.20632C38.2724 6.62131 38.2754 20.3991 35.4648 21.0949ZM33.6726 23.8984C31.4508 24.3605 25.8594 25.2484 18.9867 25.2484C12.1141 25.2484 6.52561 24.359 4.30829 23.8976C4.1754 23.8697 4.0382 23.8711 3.90588 23.9017C3.77355 23.9323 3.64914 23.9913 3.54096 24.0749C3.43279 24.1586 3.34334 24.2648 3.2786 24.3866C3.21386 24.5083 3.17532 24.6428 3.16556 24.781C2.89673 28.5865 3.09151 40.5569 16.6302 42.9316C17.3545 43.5615 18.5557 45.0068 18.9934 45C19.4311 45.0068 20.6323 43.563 21.3559 42.9316C34.7939 40.2975 35.0642 28.5623 34.8153 24.7893C34.8064 24.6506 34.7684 24.5154 34.704 24.393C34.6396 24.2705 34.5503 24.1635 34.442 24.0792C34.3337 23.995 34.2091 23.9354 34.0763 23.9044C33.9436 23.8735 33.806 23.872 33.6726 23.8999V23.8984Z" fill="#74C947"/>
</svg>
