<svg width="15" height="19" viewBox="0 0 15 19" fill="none" xmlns="http://www.w3.org/2000/svg">
<g clip-path="url(#clip0_55_93)">
<path d="M12.8819 9.11425H9.24348C9.24095 9.11299 9.23842 9.11172 9.23589 9.11046L12.1419 6.20703C12.2911 6.05648 12.4113 5.88822 12.5011 5.70604C12.5011 5.70604 12.5011 5.70225 12.5011 5.69845C12.7744 5.13801 12.5429 4.46117 11.9837 4.18538L6.77525 1.62226C6.33752 1.40593 5.81376 1.49196 5.47092 1.83733L3.83133 3.22263C3.38728 3.66795 3.38728 4.3878 3.83133 4.83059C4.27539 5.27338 4.99397 5.27338 5.43676 4.83059L6.50198 4.01586L8.16181 4.83312L5.34188 7.65432C2.43465 7.75679 0.109375 10.1377 0.109375 13.069C0.109375 16.066 2.53586 18.4925 5.53417 18.4951C8.52996 18.4925 10.9564 16.066 10.959 13.069C10.959 12.4529 10.8502 11.8608 10.6604 11.3067C10.6731 11.3345 10.6895 11.3586 10.7009 11.3864H11.6687L11.4271 15.0666C11.3853 15.6928 11.8572 16.2318 12.4847 16.2748C12.5075 16.2773 12.5328 16.2798 12.5568 16.2798C13.1501 16.2798 13.6499 15.8193 13.6903 15.2184L14.0142 10.3275C14.0345 10.0087 13.9257 9.70633 13.7093 9.47481C13.493 9.2433 13.197 9.11425 12.8819 9.11425ZM5.53417 16.4823C3.65042 16.4772 2.12596 14.954 2.12343 13.069C2.1247 11.5129 3.17727 10.2124 4.60432 9.80374C4.90288 9.72024 5.2103 9.65952 5.53417 9.65825C6.61711 9.66078 7.56974 10.1757 8.19597 10.9626C8.6552 11.5445 8.94238 12.2694 8.94491 13.069C8.94112 14.954 7.41666 16.4772 5.53417 16.4823ZM13.14 0.503906C12.1292 0.503906 11.3107 1.32243 11.3107 2.33199C11.3107 3.34408 12.1292 4.16261 13.14 4.16261C14.1508 4.16261 14.9681 3.34408 14.9681 2.33199C14.9694 1.32243 14.1508 0.503906 13.14 0.503906Z" fill="#74C947"/>
</g>
<defs>
<clipPath id="clip0_55_93">
<rect width="14.86" height="17.9911" fill="white" transform="translate(0.109375 0.503906)"/>
</clipPath>
</defs>
</svg>
