<svg width="306" height="268" viewBox="0 0 306 268" fill="none" xmlns="http://www.w3.org/2000/svg">
<mask id="path-1-inside-1_97_1003" fill="white">
<path d="M299.546 88.4349C306.501 93.8857 307.74 103.964 302.055 110.729C235.85 189.516 145.546 244.349 45.1035 266.751C36.4788 268.675 28.1079 262.927 26.4795 254.242L1.18018 119.307C-0.448181 110.622 5.28723 102.303 13.8732 100.214C73.9355 85.5981 128.024 52.7552 168.696 6.20502C174.51 -0.449402 184.536 -1.70148 191.491 3.74939L299.546 88.4349Z"/>
</mask>
<path d="M299.546 88.4349C306.501 93.8857 307.74 103.964 302.055 110.729C235.85 189.516 145.546 244.349 45.1035 266.751C36.4788 268.675 28.1079 262.927 26.4795 254.242L1.18018 119.307C-0.448181 110.622 5.28723 102.303 13.8732 100.214C73.9355 85.5981 128.024 52.7552 168.696 6.20502C174.51 -0.449402 184.536 -1.70148 191.491 3.74939L299.546 88.4349Z" stroke="#4D8428" stroke-width="332" mask="url(#path-1-inside-1_97_1003)"/>
</svg>
