<svg width="469" height="730" viewBox="0 0 469 730" fill="none" xmlns="http://www.w3.org/2000/svg">
<mask id="path-1-inside-1_97_1004" fill="white">
<path d="M0 16C0 7.16345 7.16568 -0.0285118 15.9971 0.27284C95.999 3.00272 174.069 26.1714 242.716 67.6897C315.932 111.971 375.638 175.439 415.371 251.22C455.103 327.001 473.347 412.208 468.126 497.613C463.232 577.69 437.885 655.08 394.629 722.435C389.854 729.87 379.863 731.673 372.595 726.648L259.676 648.565C252.408 643.539 250.63 633.594 255.261 626.068C281.031 584.187 296.146 536.531 299.156 487.285C302.492 432.707 290.833 378.256 265.442 329.828C240.051 281.4 201.896 240.841 155.107 212.543C112.891 187.01 65.0968 172.337 15.9929 169.713C7.16888 169.242 0 162.123 0 153.286V16Z"/>
</mask>
<path d="M0 16C0 7.16345 7.16568 -0.0285118 15.9971 0.27284C95.999 3.00272 174.069 26.1714 242.716 67.6897C315.932 111.971 375.638 175.439 415.371 251.22C455.103 327.001 473.347 412.208 468.126 497.613C463.232 577.69 437.885 655.08 394.629 722.435C389.854 729.87 379.863 731.673 372.595 726.648L259.676 648.565C252.408 643.539 250.63 633.594 255.261 626.068C281.031 584.187 296.146 536.531 299.156 487.285C302.492 432.707 290.833 378.256 265.442 329.828C240.051 281.4 201.896 240.841 155.107 212.543C112.891 187.01 65.0968 172.337 15.9929 169.713C7.16888 169.242 0 162.123 0 153.286V16Z" stroke="#4D8428" stroke-width="332" mask="url(#path-1-inside-1_97_1004)"/>
</svg>
