<svg width="435" height="407" viewBox="0 0 435 407" fill="none" xmlns="http://www.w3.org/2000/svg">
<mask id="path-1-inside-1_97_1002" fill="white">
<path d="M13.4147 380.093C4.74224 378.397 -0.941049 369.983 1.04896 361.374C22.9167 266.765 73.6561 181.131 146.431 116.449C219.207 51.7665 310.203 11.4262 406.724 0.811289C415.508 -0.154689 423.197 6.47667 423.863 15.2881L434.208 152.184C434.874 160.995 428.261 168.634 419.498 169.769C359.951 177.482 303.956 202.929 258.893 242.981C213.829 283.033 181.987 335.655 167.341 393.886C165.185 402.455 156.823 408.126 148.151 406.431L13.4147 380.093Z"/>
</mask>
<path d="M13.4147 380.093C4.74224 378.397 -0.941049 369.983 1.04896 361.374C22.9167 266.765 73.6561 181.131 146.431 116.449C219.207 51.7665 310.203 11.4262 406.724 0.811289C415.508 -0.154689 423.197 6.47667 423.863 15.2881L434.208 152.184C434.874 160.995 428.261 168.634 419.498 169.769C359.951 177.482 303.956 202.929 258.893 242.981C213.829 283.033 181.987 335.655 167.341 393.886C165.185 402.455 156.823 408.126 148.151 406.431L13.4147 380.093Z" stroke="#88C75A" stroke-width="332" mask="url(#path-1-inside-1_97_1002)"/>
</svg>
