<svg width="517" height="529" viewBox="0 0 517 529" fill="none" xmlns="http://www.w3.org/2000/svg">
<mask id="path-1-inside-1_97_1001" fill="white">
<path d="M516.74 510.477C517.672 519.265 511.303 527.172 502.489 527.803C437.167 532.479 371.525 523.426 309.812 501.158C243.077 477.077 182.675 438.17 133.154 387.366C83.6327 336.562 46.2827 275.185 23.9162 207.856C3.23276 145.594 -4.13882 79.7423 2.20638 14.5605C3.06254 5.76556 11.1299 -0.398499 19.8906 0.757141L155.998 18.7113C164.758 19.8669 170.879 27.9052 170.192 36.715C167.093 76.4845 171.96 116.53 184.57 154.487C198.863 197.514 222.731 236.736 254.378 269.203C286.024 301.669 324.624 326.533 367.271 341.921C404.894 355.497 444.801 361.387 484.637 359.306C493.462 358.845 501.341 365.168 502.272 373.956L516.74 510.477Z"/>
</mask>
<path d="M516.74 510.477C517.672 519.265 511.303 527.172 502.489 527.803C437.167 532.479 371.525 523.426 309.812 501.158C243.077 477.077 182.675 438.17 133.154 387.366C83.6327 336.562 46.2827 275.185 23.9162 207.856C3.23276 145.594 -4.13882 79.7423 2.20638 14.5605C3.06254 5.76556 11.1299 -0.398499 19.8906 0.757141L155.998 18.7113C164.758 19.8669 170.879 27.9052 170.192 36.715C167.093 76.4845 171.96 116.53 184.57 154.487C198.863 197.514 222.731 236.736 254.378 269.203C286.024 301.669 324.624 326.533 367.271 341.921C404.894 355.497 444.801 361.387 484.637 359.306C493.462 358.845 501.341 365.168 502.272 373.956L516.74 510.477Z" stroke="#88C75A" stroke-width="332" mask="url(#path-1-inside-1_97_1001)"/>
</svg>
