<svg width="160" height="161" viewBox="0 0 160 161" fill="none" xmlns="http://www.w3.org/2000/svg">
<g clip-path="url(#clip0_53_938)">
<mask id="mask0_53_938" style="mask-type:alpha" maskUnits="userSpaceOnUse" x="0" y="0" width="160" height="161">
<path d="M100 0.230469H60C26.8629 0.230469 0 27.0934 0 60.2305V100.23C0 133.368 26.8629 160.23 60 160.23H100C133.137 160.23 160 133.368 160 100.23V60.2305C160 27.0934 133.137 0.230469 100 0.230469Z" fill="#D9E3E6"/>
</mask>
<g mask="url(#mask0_53_938)">
<path d="M100 0.230469H60C26.8629 0.230469 0 27.0934 0 60.2305V100.23C0 133.368 26.8629 160.23 60 160.23H100C133.137 160.23 160 133.368 160 100.23V60.2305C160 27.0934 133.137 0.230469 100 0.230469Z" fill="#6944FF"/>
<path d="M77.9175 53.2305C77.0261 53.2305 76.1458 52.8892 75.4635 52.2175L69.0151 45.765C67.6616 44.4107 67.6616 42.2195 69.0151 40.8651L77.5103 32.3646C78.2366 31.6379 79.216 31.2305 80.2503 31.2305H86.5337C88.4484 31.2305 90 32.783 90 34.699V40.9862C90 42.0213 89.5928 43.0013 88.8666 43.728L80.3824 52.2285C79.6891 52.9002 78.8088 53.2305 77.9175 53.2305ZM80.2503 33.4327C79.7992 33.4327 79.381 33.6089 79.0619 33.9282L70.5777 42.4287C70.0825 42.9242 70.0825 43.728 70.5777 44.2125L77.0261 50.6649C77.5213 51.1604 78.3246 51.1604 78.8088 50.6649L87.304 42.1644C87.6231 41.8451 87.7992 41.4267 87.7992 40.9752V34.699C87.7992 34.0053 87.227 33.4327 86.5337 33.4327H80.2503ZM83.5516 37.6719C82.8803 37.0003 81.7909 37.0003 81.1087 37.6719C80.4264 38.3436 80.4374 39.4337 81.1087 40.1164C81.7799 40.7991 82.8693 40.7881 83.5516 40.1164C84.2338 39.4447 84.2228 38.3546 83.5516 37.6719ZM79.5571 47.9012C79.9862 47.4717 79.9862 46.778 79.5571 46.3486L74.8913 41.6799C74.4622 41.2505 73.7689 41.2505 73.3398 41.6799C72.9106 42.1094 72.9106 42.8031 73.3398 43.2325L78.0055 47.9012C78.2256 48.1214 78.5007 48.2205 78.7868 48.2205C79.0729 48.2205 79.337 48.1214 79.5571 47.9012Z" fill="white"/>
<path d="M53.4686 80.3122H64.8386V82.2322H51.3086V60.9922H64.4786V62.9122H53.4686V70.2322H63.7586V72.1222H53.4686V80.3122ZM77.7925 73.1722C77.7925 71.9522 77.4725 71.0422 76.8325 70.4422C76.1925 69.8422 75.2625 69.5422 74.0425 69.5422C73.2025 69.5422 72.4225 69.6922 71.7025 69.9922C70.9825 70.2922 70.3725 70.6922 69.8725 71.1922L68.7325 69.8422C69.3125 69.2622 70.0725 68.7822 71.0125 68.4022C71.9725 68.0222 73.0525 67.8322 74.2525 67.8322C75.0125 67.8322 75.7225 67.9422 76.3825 68.1622C77.0425 68.3622 77.6225 68.6722 78.1225 69.0922C78.6225 69.5122 79.0125 70.0422 79.2925 70.6822C79.5725 71.3222 79.7125 72.0722 79.7125 72.9322V79.0822C79.7125 79.6222 79.7325 80.1822 79.7725 80.7622C79.8125 81.3422 79.8725 81.8322 79.9525 82.2322H78.1225C78.0625 81.8922 78.0125 81.5222 77.9725 81.1222C77.9325 80.7222 77.9125 80.3322 77.9125 79.9522H77.8525C77.2125 80.8922 76.4825 81.5722 75.6625 81.9922C74.8625 82.3922 73.8925 82.5922 72.7525 82.5922C72.2125 82.5922 71.6525 82.5122 71.0725 82.3522C70.5125 82.2122 69.9925 81.9722 69.5125 81.6322C69.0525 81.2922 68.6625 80.8522 68.3425 80.3122C68.0425 79.7722 67.8925 79.1122 67.8925 78.3322C67.8925 77.2522 68.1625 76.4022 68.7025 75.7822C69.2625 75.1422 70.0025 74.6722 70.9225 74.3722C71.8425 74.0522 72.8925 73.8522 74.0725 73.7722C75.2725 73.6722 76.5125 73.6222 77.7925 73.6222V73.1722ZM77.1925 75.2122C76.3525 75.2122 75.5025 75.2522 74.6425 75.3322C73.8025 75.3922 73.0325 75.5322 72.3325 75.7522C71.6525 75.9522 71.0925 76.2522 70.6525 76.6522C70.2125 77.0522 69.9925 77.5822 69.9925 78.2422C69.9925 78.7422 70.0825 79.1622 70.2625 79.5022C70.4625 79.8422 70.7225 80.1222 71.0425 80.3422C71.3625 80.5422 71.7125 80.6922 72.0925 80.7922C72.4925 80.8722 72.8925 80.9122 73.2925 80.9122C74.0125 80.9122 74.6525 80.7922 75.2125 80.5522C75.7725 80.2922 76.2425 79.9522 76.6225 79.5322C77.0025 79.0922 77.2925 78.5922 77.4925 78.0322C77.6925 77.4722 77.7925 76.8822 77.7925 76.2622V75.2122H77.1925ZM84.9679 71.2822C84.9679 70.9022 84.9579 70.4122 84.9379 69.8122C84.9179 69.2122 84.8879 68.6722 84.8479 68.1922H86.7979C86.8379 68.5722 86.8679 68.9922 86.8879 69.4522C86.9079 69.9122 86.9179 70.2922 86.9179 70.5922H86.9779C87.3779 69.7722 87.9779 69.1122 88.7779 68.6122C89.5779 68.0922 90.4779 67.8322 91.4779 67.8322C91.7379 67.8322 91.9679 67.8422 92.1679 67.8622C92.3879 67.8822 92.6079 67.9222 92.8279 67.9822L92.5579 69.9022C92.4379 69.8622 92.2379 69.8222 91.9579 69.7822C91.6779 69.7422 91.3979 69.7222 91.1179 69.7222C90.5779 69.7222 90.0579 69.8222 89.5579 70.0222C89.0579 70.2222 88.6179 70.5422 88.2379 70.9822C87.8779 71.4022 87.5779 71.9522 87.3379 72.6322C87.1179 73.2922 87.0079 74.0922 87.0079 75.0322V82.2322H84.9679V71.2822ZM97.6084 68.1922C97.6484 68.5722 97.6784 68.9922 97.6984 69.4522C97.7184 69.9122 97.7284 70.2922 97.7284 70.5922H97.7884C98.1884 69.7722 98.8384 69.1122 99.7384 68.6122C100.638 68.0922 101.588 67.8322 102.588 67.8322C104.368 67.8322 105.698 68.3622 106.578 69.4222C107.478 70.4822 107.928 71.8822 107.928 73.6222V82.2322H105.888V74.4622C105.888 73.7222 105.828 73.0522 105.708 72.4522C105.588 71.8522 105.378 71.3422 105.078 70.9222C104.798 70.4822 104.408 70.1422 103.908 69.9022C103.428 69.6622 102.818 69.5422 102.078 69.5422C101.538 69.5422 101.008 69.6522 100.488 69.8722C99.9884 70.0922 99.5384 70.4322 99.1384 70.8922C98.7384 71.3322 98.4184 71.9022 98.1784 72.6022C97.9384 73.2822 97.8184 74.0922 97.8184 75.0322V82.2322H95.7784V71.2822C95.7784 70.9022 95.7684 70.4122 95.7484 69.8122C95.7284 69.2122 95.6984 68.6722 95.6584 68.1922H97.6084Z" fill="white"/>
<path d="M58 143.23C67.9411 143.23 76 135.172 76 125.23C76 115.289 67.9411 107.23 58 107.23C48.0589 107.23 40 115.289 40 125.23C40 135.172 48.0589 143.23 58 143.23Z" fill="#53A318"/>
<path d="M57.8582 127.435C58.7845 127.435 59.4016 126.835 59.4016 125.822V123.23H58.3885V125.781C58.3885 126.253 58.2192 126.486 57.8638 126.486C57.521 126.486 57.3741 126.247 57.3741 125.781V123.23H56.3555V125.822C56.3569 126.857 56.9208 127.435 57.8582 127.435Z" fill="white"/>
<path d="M62.1174 123.457C61.8375 123.26 61.5059 123.23 61.0694 123.23H59.6953V127.371H60.7084V126.037H60.9994C61.4304 126.037 61.7564 126.008 62.0194 125.851C62.4322 125.601 62.6771 125.159 62.6771 124.623C62.6771 124.104 62.4854 123.713 62.1174 123.457ZM60.907 125.14H60.7209V124.157H60.9882C61.4374 124.157 61.6528 124.297 61.6528 124.64C61.6514 125.012 61.408 125.14 60.907 125.14Z" fill="white"/>
<path d="M68.2787 125.065L69.822 127.371H70.7119V123.23H69.7003V125.531L68.1793 123.23H67.2656V127.371H68.2787V125.065Z" fill="white"/>
<path d="M55.4529 123.764C55.0514 123.368 54.5281 123.152 53.974 123.152C53.3863 123.152 52.8728 123.357 52.4656 123.758C52.0584 124.16 51.8359 124.684 51.8359 125.255C51.8359 125.867 52.0346 126.379 52.4236 126.793C52.8308 127.224 53.3555 127.445 53.967 127.445C54.5434 127.445 55.0905 127.218 55.4921 126.799C55.8825 126.397 56.0924 125.867 56.0924 125.274C56.0938 124.707 55.8727 124.177 55.4529 123.764ZM53.9684 126.42C53.3975 126.42 52.8798 125.919 52.8798 125.267C52.8798 124.661 53.3625 124.178 53.981 124.178C54.563 124.178 55.0472 124.661 55.0472 125.267C55.0458 125.941 54.563 126.42 53.9684 126.42Z" fill="white"/>
<path d="M66.4256 123.764C66.024 123.368 65.4993 123.152 64.9466 123.152C64.3575 123.152 63.8454 123.357 63.4382 123.758C63.0311 124.16 62.8086 124.684 62.8086 125.255C62.8086 125.867 63.0073 126.379 63.3963 126.793C63.8048 127.224 64.3282 127.445 64.9396 127.445C65.5161 127.445 66.0632 127.218 66.4648 126.799C66.8552 126.397 67.0651 125.867 67.0651 125.274C67.0664 124.707 66.8454 124.177 66.4256 123.764ZM64.941 126.42C64.3701 126.42 63.8524 125.919 63.8524 125.267C63.8524 124.661 64.3366 124.178 64.9536 124.178C65.5357 124.178 66.0198 124.661 66.0198 125.267C66.0184 125.941 65.5343 126.42 64.941 126.42Z" fill="white"/>
<path d="M44.7855 126.795C45.1927 127.226 45.7118 127.453 46.3233 127.453C47.0285 127.453 47.6917 127.103 48.0877 126.527C48.327 126.177 48.4431 125.781 48.4431 125.315C48.4431 125.228 48.4375 125.134 48.4319 125.041H46.0728V125.868H47.2551C47.0509 126.229 46.708 126.427 46.3233 126.427C45.7524 126.427 45.2403 125.921 45.2403 125.262C45.2403 124.667 45.7174 124.173 46.3233 124.173C46.6493 124.173 46.9165 124.307 47.174 124.575H48.327C47.9953 123.689 47.2202 123.148 46.3358 123.148C45.7482 123.148 45.2361 123.357 44.8275 123.759C44.4203 124.161 44.1992 124.685 44.1992 125.256C44.1978 125.869 44.3951 126.381 44.7855 126.795Z" fill="white"/>
<path d="M50.7435 125.949C51.3312 125.785 51.681 125.286 51.681 124.616C51.681 124.104 51.4893 123.713 51.1213 123.457C50.8414 123.26 50.5098 123.23 50.0733 123.23H48.6992V127.371H49.7123V126.037L50.5042 127.371H51.7565L50.7435 125.949ZM49.911 125.14H49.7137V124.157H49.9935C50.4413 124.157 50.6567 124.297 50.6567 124.64C50.6567 125.012 50.4119 125.14 49.911 125.14Z" fill="white"/>
<path d="M71.3223 123.757C71.4091 123.757 71.4833 123.726 71.5434 123.665C71.605 123.603 71.6344 123.529 71.6344 123.444C71.6344 123.357 71.6036 123.284 71.5434 123.224C71.4833 123.164 71.4091 123.133 71.3223 123.133C71.237 123.133 71.1628 123.164 71.1027 123.224C71.0411 123.285 71.0117 123.358 71.0117 123.444C71.0117 123.53 71.0425 123.604 71.1027 123.665C71.1628 123.726 71.2356 123.757 71.3223 123.757ZM71.1335 123.253C71.1866 123.2 71.2496 123.173 71.3237 123.173C71.3979 123.173 71.4623 123.2 71.514 123.253C71.5658 123.305 71.5924 123.369 71.5924 123.444C71.5924 123.518 71.5658 123.582 71.514 123.635C71.4623 123.688 71.3993 123.715 71.3237 123.715C71.2496 123.715 71.1852 123.688 71.1335 123.635C71.0817 123.582 71.0551 123.519 71.0551 123.444C71.0551 123.369 71.0803 123.306 71.1335 123.253Z" fill="white"/>
<path d="M71.4573 123.608C71.4559 123.605 71.4545 123.6 71.4545 123.59C71.4545 123.582 71.4531 123.572 71.4531 123.565V123.54C71.4531 123.523 71.4475 123.505 71.4349 123.486C71.4223 123.468 71.4027 123.457 71.3761 123.453C71.3971 123.45 71.4139 123.444 71.4251 123.436C71.4475 123.422 71.4587 123.398 71.4587 123.369C71.4587 123.326 71.4405 123.296 71.4055 123.282C71.3859 123.274 71.3551 123.27 71.3117 123.27H71.1914V123.612H71.2516V123.478H71.2991C71.3313 123.478 71.3537 123.482 71.3663 123.489C71.3887 123.502 71.3985 123.528 71.3985 123.568V123.594L71.3999 123.605C71.3999 123.607 71.3999 123.608 71.3999 123.61L71.4013 123.612H71.4573V123.608ZM71.3663 123.428C71.3537 123.433 71.3341 123.435 71.3089 123.435H71.2544V123.31H71.3061C71.3397 123.31 71.3635 123.314 71.3789 123.323C71.3943 123.331 71.4013 123.348 71.4013 123.373C71.4013 123.401 71.3887 123.419 71.3663 123.428Z" fill="white"/>
<path d="M12 143.23C21.9411 143.23 30 135.172 30 125.23C30 115.289 21.9411 107.23 12 107.23C2.05887 107.23 -6 115.289 -6 125.23C-6 135.172 2.05887 143.23 12 143.23Z" fill="black"/>
<path d="M18.0422 129.253C17.8214 129.756 17.56 130.219 17.2571 130.645C16.8443 131.226 16.5063 131.627 16.2458 131.851C15.842 132.217 15.4093 132.404 14.946 132.415C14.6134 132.415 14.2123 132.322 13.7454 132.132C13.277 131.944 12.8465 131.851 12.4529 131.851C12.04 131.851 11.5973 131.944 11.1237 132.132C10.6494 132.322 10.2673 132.42 9.97519 132.43C9.53091 132.449 9.08808 132.256 8.64605 131.851C8.36391 131.608 8.01104 131.192 7.58829 130.603C7.13472 129.973 6.76184 129.243 6.4697 128.412C6.15684 127.513 6 126.643 6 125.8C6 124.835 6.21146 124.003 6.63501 123.305C6.96789 122.745 7.41072 122.303 7.96497 121.979C8.51921 121.654 9.11809 121.489 9.76301 121.478C10.1159 121.478 10.5787 121.586 11.1537 121.798C11.7272 122.01 12.0954 122.117 12.2568 122.117C12.3775 122.117 12.7866 121.992 13.48 121.741C14.1357 121.508 14.6891 121.412 15.1425 121.45C16.3711 121.547 17.2941 122.025 17.9079 122.885C16.8092 123.542 16.2656 124.461 16.2764 125.641C16.2864 126.56 16.6244 127.324 17.2887 127.932C17.5897 128.213 17.9259 128.431 18.3 128.586C18.2189 128.818 18.1332 129.04 18.0422 129.253ZM15.2246 118.319C15.2246 119.04 14.9577 119.712 14.4259 120.334C13.7842 121.074 13.0079 121.502 12.1661 121.434C12.1549 121.344 12.1492 121.253 12.1492 121.161C12.1492 120.47 12.4544 119.73 12.9964 119.125C13.267 118.819 13.6111 118.564 14.0284 118.361C14.4449 118.161 14.8388 118.05 15.2092 118.031C15.2201 118.128 15.2246 118.224 15.2246 118.319Z" fill="white"/>
<path d="M104 143.23C113.941 143.23 122 135.172 122 125.23C122 115.289 113.941 107.23 104 107.23C94.0589 107.23 86 115.289 86 125.23C86 135.172 94.0589 143.23 104 143.23Z" fill="#444444"/>
<path d="M92 123.52H93.6451V124.637H93.6558L94.9102 123.52H96.7544L95.2413 124.89L96.9919 126.771H94.9102L93.6558 125.44H93.6451V126.771H92V123.52Z" fill="white"/>
<path d="M99.3682 126.207C100.1 126.207 100.052 125.391 100.052 125.121C100.052 124.852 100.06 124.104 99.3682 124.104C98.6765 124.104 98.6847 124.852 98.6847 125.121C98.6847 125.391 98.636 126.207 99.3682 126.207ZM99.3682 123.43C101.236 123.43 101.744 123.821 101.744 125.155C101.744 126.489 101.236 126.881 99.3682 126.881C97.5001 126.881 96.9922 126.489 96.9922 125.155C96.9922 123.821 97.5001 123.43 99.3682 123.43Z" fill="white"/>
<path d="M105.292 125.55V126.793H106.98V123.543H105.292V124.66H104.08V123.543H102.391V126.793H104.08V125.55H105.292Z" fill="white"/>
<path d="M107.781 123.543H109.509V126.019C109.509 126.019 110.889 126.023 111.072 126.023C111.255 126.023 111.364 125.859 111.364 125.859V126.793H107.781V123.543Z" fill="white"/>
<path d="M115.389 124.619C115.032 124.333 114.725 124.237 114.396 124.231C114.074 124.226 113.78 124.338 113.78 124.534C113.78 124.688 114 124.752 114.769 124.913C115.401 125.045 115.822 125.368 115.822 125.969C115.822 126.647 114.693 127.03 113.684 127.03C112.975 127.03 112.431 126.903 111.945 126.684V125.774C112.246 126.088 112.919 126.255 113.434 126.255C113.721 126.255 113.861 126.212 113.861 125.985C113.861 125.844 113.683 125.716 113.142 125.617C112.119 125.429 111.773 125.136 111.773 124.636C111.773 123.916 112.668 123.488 113.77 123.488C114.364 123.488 114.91 123.507 115.389 123.73V124.619Z" fill="white"/>
<path d="M110.401 124.871L110.52 124.662C110.163 124.486 110.058 124.038 110.239 123.783C110.434 123.508 110.974 123.39 111.266 123.815C111.514 124.179 111.276 124.486 111.169 124.574C111.061 124.662 110.401 124.871 110.401 124.871Z" fill="white"/>
<path d="M150 143.23C159.941 143.23 168 135.172 168 125.23C168 115.289 159.941 107.23 150 107.23C140.059 107.23 132 115.289 132 125.23C132 135.172 140.059 143.23 150 143.23Z" fill="white"/>
<path d="M142.051 129.727C141.443 129.701 140.946 129.522 140.557 129.191C140.483 129.127 140.306 128.938 140.247 128.858C140.089 128.645 139.982 128.438 139.91 128.208C139.69 127.501 139.804 126.573 140.234 125.555C140.603 124.683 141.172 123.819 142.165 122.621C142.311 122.445 142.746 121.93 142.749 121.93C142.749 121.93 142.727 121.974 142.697 122.028C142.439 122.491 142.218 123.038 142.097 123.511C141.904 124.27 141.927 124.921 142.166 125.426C142.33 125.774 142.612 126.075 142.929 126.242C143.483 126.534 144.295 126.558 145.287 126.313C145.355 126.296 148.738 125.332 152.805 124.171C156.872 123.01 160.201 122.062 160.201 122.062C160.201 122.062 150.752 126.401 145.847 128.652C145.07 129.008 144.862 129.098 144.497 129.236C143.563 129.587 142.727 129.755 142.051 129.727Z" fill="black"/>
</g>
</g>
<defs>
<clipPath id="clip0_53_938">
<rect width="160" height="161" fill="white"/>
</clipPath>
</defs>
</svg>
