<svg width="48" height="48" viewBox="0 0 48 48" fill="none" xmlns="http://www.w3.org/2000/svg">
<path d="M34.1023 40.56C32.1423 42.46 30.0023 42.16 27.9423 41.26C25.7623 40.34 23.7623 40.3 21.4623 41.26C18.5823 42.5 17.0623 42.14 15.3423 40.56C5.58228 30.5 7.02228 15.18 18.1023 14.62C20.8023 14.76 22.6823 16.1 24.2623 16.22C26.6223 15.74 28.8823 14.36 31.4023 14.54C34.4223 14.78 36.7023 15.98 38.2023 18.14C31.9623 21.88 33.4423 30.1 39.1623 32.4C38.0223 35.4 36.5423 38.38 34.0823 40.58L34.1023 40.56ZM24.0623 14.5C23.7623 10.04 27.3823 6.36 31.5423 6C32.1223 11.16 26.8623 15 24.0623 14.5Z" fill="white"/>
</svg>
