<svg width="32" height="32" viewBox="0 0 32 32" fill="none" xmlns="http://www.w3.org/2000/svg">
<path d="M2.54454 15.4526C1.75813 16.1997 1.3125 17.2221 1.3125 18.3099V26.2133C1.3125 28.3891 3.06881 30.1454 5.24454 30.1454H23.1746C24.0266 30.1454 24.813 29.5293 24.9047 28.6774C25.0096 27.6944 24.2363 26.8687 23.2795 26.8687H16.3853C16.0183 26.8687 15.73 26.5803 15.73 26.2133C15.73 25.8463 16.0183 25.558 16.3853 25.558H25.796C26.6479 25.558 27.4343 24.942 27.5261 24.09C27.6309 23.107 26.8576 22.2813 25.9008 22.2813H16.3853C16.0183 22.2813 15.73 21.9929 15.73 21.6259C15.73 21.259 16.0183 20.9706 16.3853 20.9706H27.1067C27.9586 20.9706 28.745 20.3546 28.8368 19.5026C28.9416 18.5196 28.1683 17.6939 27.2115 17.6939H16.3853C16.0183 17.6939 15.73 17.4056 15.73 17.0386C15.73 16.6716 16.0183 16.3832 16.3853 16.3832H24.4853C25.3373 16.3832 26.1237 15.7672 26.2154 14.9153C26.3203 13.9323 25.547 13.1065 24.5902 13.1065H11.6144L13.5674 9.68566C13.712 9.43395 13.7747 9.1434 13.7465 8.85444C13.7183 8.56549 13.6007 8.29251 13.4101 8.07352L12.8596 7.48372C12.3615 6.97255 11.5358 6.94634 11.0115 7.44439L2.54454 15.4526ZM22.2703 10.5769C22.2703 11.2585 21.7198 11.7959 21.0513 11.7959C20.3698 11.7959 19.8324 11.2454 19.8324 10.5769C19.8717 9.69876 19.5441 8.83371 18.9018 8.13905L18.8101 8.06041C17.6305 6.89391 17.0013 5.39973 17.0538 3.84003C17.052 3.68058 17.0819 3.52236 17.1418 3.37455C17.2016 3.22674 17.2901 3.09226 17.4023 2.97889C17.5144 2.86553 17.6479 2.77554 17.7951 2.71412C17.9422 2.6527 18.1001 2.62108 18.2596 2.62109C18.928 2.62109 19.4785 3.17158 19.4785 3.84003C19.4392 4.71818 19.7669 5.58323 20.4091 6.27789L20.5008 6.36964C21.6936 7.52304 22.3227 9.01721 22.2703 10.5769ZM27.5261 10.5769C27.5261 11.2454 26.9756 11.7959 26.2941 11.7959C25.6125 11.7959 25.0751 11.2454 25.0751 10.5769C25.1144 9.69876 24.7868 8.83371 24.1445 8.13905L24.0528 8.06041C22.8732 6.89391 22.2441 5.39973 22.2965 3.84003C22.2965 3.17158 22.847 2.62109 23.5154 2.62109C24.1839 2.62109 24.7343 3.17158 24.7343 3.84003C24.695 4.71818 25.0227 5.58323 25.6649 6.27789L25.7567 6.36964C26.9363 7.52304 27.5654 9.01721 27.5261 10.5769Z" fill="url(#paint0_linear_97_1094)"/>
<defs>
<linearGradient id="paint0_linear_97_1094" x1="15.0794" y1="2.62109" x2="15.0794" y2="30.1454" gradientUnits="userSpaceOnUse">
<stop offset="0.572917" stop-color="white"/>
<stop offset="1" stop-color="#788A6D"/>
</linearGradient>
</defs>
</svg>
