<svg width="32" height="32" viewBox="0 0 32 32" fill="none" xmlns="http://www.w3.org/2000/svg">
<path d="M2.81798 15.7241C2.03157 16.4712 1.58594 17.4935 1.58594 18.5814V26.4848C1.58594 28.6605 3.34225 30.4168 5.51798 30.4168H23.4481C24.3 30.4168 25.0864 29.8008 25.1782 28.9489C25.283 27.9659 24.5097 27.1402 23.5529 27.1402H16.6588C16.2918 27.1402 16.0034 26.8518 16.0034 26.4848C16.0034 26.1178 16.2918 25.8295 16.6588 25.8295H26.0694C26.9214 25.8295 27.7078 25.2134 27.7995 24.3615C27.9044 23.3785 27.1311 22.5528 26.1743 22.5528H16.6588C16.2918 22.5528 16.0034 22.2644 16.0034 21.8974C16.0034 21.5304 16.2918 21.2421 16.6588 21.2421H27.3801C28.2321 21.2421 29.0185 20.6261 29.1102 19.7741C29.2151 18.7911 28.4418 17.9654 27.485 17.9654H16.6588C16.2918 17.9654 16.0034 17.677 16.0034 17.3101C16.0034 16.9431 16.2918 16.6547 16.6588 16.6547H24.7588C25.6107 16.6547 26.3971 16.0387 26.4888 15.1868C26.5937 14.2037 25.8204 13.378 24.8636 13.378H11.8879L13.8408 9.95714C13.9855 9.70544 14.0481 9.41488 14.0199 9.12593C13.9917 8.83697 13.8741 8.56399 13.6835 8.34501L13.133 7.7552C12.635 7.24403 11.8092 7.21782 11.285 7.71588L2.81798 15.7241ZM22.5437 10.8484C22.5437 11.53 21.9932 12.0673 21.3248 12.0673C20.6432 12.0673 20.1058 11.5168 20.1058 10.8484C20.1452 9.97025 19.8175 9.1052 19.1753 8.41054L19.0835 8.3319C17.9039 7.16539 17.2748 5.67122 17.3272 4.11151C17.3255 3.95206 17.3554 3.79385 17.4152 3.64603C17.475 3.49822 17.5636 3.36374 17.6757 3.25038C17.7879 3.13701 17.9214 3.04702 18.0685 2.9856C18.2157 2.92419 18.3736 2.89257 18.533 2.89258C19.2015 2.89258 19.752 3.44306 19.752 4.11151C19.7126 4.98967 20.0403 5.85471 20.6825 6.54937L20.7743 6.64112C21.967 7.79452 22.5961 9.28869 22.5437 10.8484ZM27.7995 10.8484C27.7995 11.5168 27.249 12.0673 26.5675 12.0673C25.8859 12.0673 25.3486 11.5168 25.3486 10.8484C25.3879 9.97025 25.0602 9.1052 24.418 8.41054L24.3262 8.3319C23.1466 7.16539 22.5175 5.67122 22.5699 4.11151C22.5699 3.44306 23.1204 2.89258 23.7889 2.89258C24.4573 2.89258 25.0078 3.44306 25.0078 4.11151C24.9685 4.98967 25.2961 5.85471 25.9384 6.54937L26.0301 6.64112C27.2097 7.79452 27.8388 9.28869 27.7995 10.8484Z" fill="url(#paint0_linear_97_1106)"/>
<defs>
<linearGradient id="paint0_linear_97_1106" x1="15.3528" y1="2.89258" x2="15.3528" y2="30.4168" gradientUnits="userSpaceOnUse">
<stop offset="0.572917" stop-color="white"/>
<stop offset="1" stop-color="#788A6D"/>
</linearGradient>
</defs>
</svg>
