<svg width="1062" height="211" viewBox="0 0 1062 211" fill="none" xmlns="http://www.w3.org/2000/svg">
<path d="M2 2C17.1143 2 17.1143 28.3612 32.2286 28.3612C47.3429 28.3612 46.7131 31.8476 62.4571 31.8476C78.2012 31.8476 76.9417 49.7797 92.6857 49.7797C108.43 49.7797 105.911 36.7403 122.914 36.7403C139.918 36.7403 135.51 68.4209 153.143 68.4209C170.776 68.4209 168.257 43.5939 183.371 43.5939C198.486 43.5939 197.226 55.8051 213.6 55.8051C229.974 55.8051 227.455 46.4846 243.829 46.4846C260.202 46.4846 257.683 69.786 274.057 69.786C290.431 69.786 288.542 81.0837 304.286 81.0837C320.03 81.0837 318.77 55.6639 334.514 55.6639C350.258 55.6639 348.369 24.2072 364.743 24.2072C381.117 24.2072 377.338 66.2555 394.971 66.2555C412.605 66.2555 409.456 48.2734 425.2 48.2734C440.944 48.2734 443.574 57.9749 455.429 60.2243C467.219 62.4615 469.283 59.8122 485.657 59.8122C502.031 59.8122 500.142 65.7377 515.886 65.7377C531.63 65.7377 528.481 86.6854 546.114 86.6854C563.748 86.6854 559.339 73.9756 576.343 73.9756C593.346 73.9756 588.938 99.8661 606.571 99.8661C624.205 99.8661 619.796 89.8865 636.8 89.8865C653.804 89.8865 650.655 74.7758 667.029 74.7758C683.402 74.7758 680.883 99.9545 697.257 99.9545C713.631 99.9545 709.852 115.777 727.486 115.777C745.119 115.777 746.475 120.661 757.714 136.536C770.808 155.03 770.939 209 787.943 209C804.946 209 805.861 175.813 818.171 164.545C829.718 153.977 830.767 151.647 848.4 151.647C866.033 151.647 861.625 142.279 878.629 142.279C895.632 142.279 892.483 170.994 908.857 170.994C925.231 170.994 921.452 177.02 939.086 177.02C956.719 177.02 951.681 161.156 969.314 161.156C986.948 161.156 984.429 152.683 999.543 152.683C1014.66 152.683 1014.66 180.221 1029.77 180.221C1044.89 180.221 1043.63 170.524 1060 170.524" stroke="white" stroke-width="4" stroke-linecap="round" stroke-linejoin="round"/>
</svg>
