<svg width="253" height="103" viewBox="0 0 253 103" fill="none" xmlns="http://www.w3.org/2000/svg">
<path d="M2 2C14.45 2 14.45 35 26.9 35C39.35 35 38.8313 21.1518 51.8 21.1518C64.7688 21.1518 63.7313 61.8125 76.7 61.8125C89.6688 61.8125 87.5938 45.4893 101.6 45.4893C115.606 45.4893 111.975 85.1482 126.5 85.1482C141.025 85.1482 138.95 26.75 151.4 26.75C163.85 26.75 162.813 69.3553 176.3 69.3553C189.788 69.3553 187.713 57.6875 201.2 57.6875C214.688 57.6875 212.613 86.8571 226.1 86.8571C239.588 86.8571 238.031 101 251 101" stroke="white" stroke-width="4" stroke-linecap="round" stroke-linejoin="round" stroke-dasharray="9 9"/>
</svg>
