<svg width="56" height="56" viewBox="0 0 56 56" fill="none" xmlns="http://www.w3.org/2000/svg">
<rect width="56" height="56" rx="28" fill="#D3D0C8" fill-opacity="0.5"/>
<path d="M36.25 19.75H19.75C19.3522 19.75 18.9706 19.908 18.6893 20.1893C18.408 20.4706 18.25 20.8522 18.25 21.25V34.75C18.25 35.1478 18.408 35.5294 18.6893 35.8107C18.9706 36.092 19.3522 36.25 19.75 36.25H36.25C36.6478 36.25 37.0294 36.092 37.3107 35.8107C37.592 35.5294 37.75 35.1478 37.75 34.75V21.25C37.75 20.8522 37.592 20.4706 37.3107 20.1893C37.0294 19.908 36.6478 19.75 36.25 19.75ZM35.2806 24.0306L26.2806 33.0306C26.211 33.1004 26.1283 33.1557 26.0372 33.1934C25.9462 33.2312 25.8486 33.2506 25.75 33.2506C25.6514 33.2506 25.5538 33.2312 25.4628 33.1934C25.3717 33.1557 25.289 33.1004 25.2194 33.0306L21.4694 29.2806C21.3286 29.1399 21.2496 28.949 21.2496 28.75C21.2496 28.551 21.3286 28.3601 21.4694 28.2194C21.6101 28.0786 21.801 27.9996 22 27.9996C22.199 27.9996 22.3899 28.0786 22.5306 28.2194L25.75 31.4397L34.2194 22.9694C34.3601 22.8286 34.551 22.7496 34.75 22.7496C34.949 22.7496 35.1399 22.8286 35.2806 22.9694C35.4214 23.1101 35.5004 23.301 35.5004 23.5C35.5004 23.699 35.4214 23.8899 35.2806 24.0306Z" fill="#028F10"/>
</svg>
