<svg width="56" height="56" viewBox="0 0 56 56" fill="none" xmlns="http://www.w3.org/2000/svg">
<rect width="56" height="56" rx="28" fill="#D3D0C8" fill-opacity="0.5"/>
<path d="M34 31.75V33.25L32.875 34.375M37.75 18.25L18.25 27.25L27.25 29.125M37.75 18.25L27.25 29.125M37.75 18.25L34.4688 26.7812M27.25 29.125L27.7188 31.2812M37.75 33.25C37.75 34.2446 37.3549 35.1984 36.6517 35.9017C35.9484 36.6049 34.9946 37 34 37C33.0054 37 32.0516 36.6049 31.3483 35.9017C30.6451 35.1984 30.25 34.2446 30.25 33.25C30.25 32.2554 30.6451 31.3016 31.3483 30.5983C32.0516 29.8951 33.0054 29.5 34 29.5C34.9946 29.5 35.9484 29.8951 36.6517 30.5983C37.3549 31.3016 37.75 32.2554 37.75 33.25Z" stroke="#028F10" stroke-width="2" stroke-linecap="round" stroke-linejoin="round"/>
</svg>
