<svg width="36" height="36" viewBox="0 0 36 36" fill="none" xmlns="http://www.w3.org/2000/svg">
<g clip-path="url(#clip0_97_1022)">
<path d="M4.92365 16.4106C4.50229 16.8324 4.26563 17.4043 4.26563 18.0006C4.26563 18.5968 4.50229 19.1687 4.92365 19.5906L13.4076 28.0791C13.8297 28.5012 14.4022 28.7383 14.9991 28.7383C15.5961 28.7383 16.1686 28.5012 16.5906 28.0791C17.0127 27.657 17.2499 27.0845 17.2499 26.4876C17.2499 25.8906 17.0127 25.3182 16.5906 24.8961L11.9466 20.2506H29.2491C29.8459 20.2506 30.4182 20.0135 30.8401 19.5916C31.2621 19.1696 31.4991 18.5973 31.4991 18.0006C31.4991 17.4038 31.2621 16.8315 30.8401 16.4096C30.4182 15.9876 29.8459 15.7506 29.2491 15.7506L11.9466 15.7506L16.5906 11.1066C16.7996 10.8976 16.9654 10.6494 17.0785 10.3764C17.1916 10.1033 17.2499 9.81063 17.2499 9.51506C17.2499 9.21949 17.1916 8.92682 17.0785 8.65375C16.9654 8.38068 16.7996 8.13256 16.5906 7.92356C16.3816 7.71456 16.1335 7.54878 15.8605 7.43567C15.5874 7.32256 15.2947 7.26434 14.9991 7.26434C14.7036 7.26434 14.4109 7.32256 14.1378 7.43567C13.8648 7.54878 13.6166 7.71456 13.4076 7.92356L4.92365 16.4106Z" fill="black"/>
</g>
<defs>
<clipPath id="clip0_97_1022">
<rect width="36" height="36" fill="white" transform="matrix(0 -1 1 0 0 36)"/>
</clipPath>
</defs>
</svg>
