<svg width="36" height="36" viewBox="0 0 36 36" fill="none" xmlns="http://www.w3.org/2000/svg">
<g clip-path="url(#clip0_97_1032)">
<path d="M31.0764 16.4106C31.4977 16.8324 31.7344 17.4043 31.7344 18.0006C31.7344 18.5968 31.4977 19.1687 31.0764 19.5906L22.5924 28.0791C22.1703 28.5012 21.5978 28.7383 21.0009 28.7383C20.4039 28.7383 19.8314 28.5012 19.4094 28.0791C18.9873 27.657 18.7501 27.0845 18.7501 26.4876C18.7501 25.8906 18.9873 25.3182 19.4094 24.8961L24.0534 20.2506H6.75085C6.15412 20.2506 5.58182 20.0135 5.15987 19.5916C4.73791 19.1696 4.50085 18.5973 4.50085 18.0006C4.50085 17.4038 4.73791 16.8315 5.15987 16.4096C5.58182 15.9876 6.15412 15.7506 6.75085 15.7506L24.0534 15.7506L19.4094 11.1066C19.2004 10.8976 19.0346 10.6494 18.9215 10.3764C18.8084 10.1033 18.7501 9.81063 18.7501 9.51506C18.7501 9.21949 18.8084 8.92682 18.9215 8.65375C19.0346 8.38068 19.2004 8.13256 19.4094 7.92356C19.6184 7.71456 19.8665 7.54878 20.1395 7.43567C20.4126 7.32256 20.7053 7.26434 21.0009 7.26434C21.2964 7.26434 21.5891 7.32256 21.8622 7.43567C22.1352 7.54878 22.3834 7.71456 22.5924 7.92356L31.0764 16.4106Z" fill="white"/>
</g>
<defs>
<clipPath id="clip0_97_1032">
<rect width="36" height="36" fill="white" transform="matrix(0 -1 -1 0 36 36)"/>
</clipPath>
</defs>
</svg>
