<svg width="75" height="72" viewBox="0 0 75 72" fill="none" xmlns="http://www.w3.org/2000/svg">
<path d="M75 56.8612C75 59.5755 73.5013 64.8024 70.1338 67.6734C69.4604 68.1961 68.7869 67.9012 69.0829 67.1396C70.0635 64.7203 72.306 59.1237 71.2551 57.8357C70.5113 56.8575 67.4399 56.9322 64.8199 57.1562C63.6247 57.3092 62.5737 57.3802 61.7596 57.5482C61.0047 57.6079 60.853 56.9396 61.6079 56.4169C62.591 55.7167 63.6775 55.1774 64.8273 54.819C69.0829 53.5347 74.0009 54.3075 74.7077 55.1289C74.8409 55.2857 75 55.73 75 56.8612ZM67.8876 61.6924C66.9117 62.4453 65.8868 63.1313 64.8199 63.7458C56.9675 68.506 46.7948 71 37.9617 71C23.7407 71 11.0221 65.7096 1.37119 56.8575C0.542282 56.178 1.22687 55.1924 2.19641 55.7262C12.5948 61.8492 25.4651 65.5528 38.7869 65.5528C47.1723 65.5528 56.2089 63.9698 64.8199 60.5649C65.4231 60.3371 66.0966 60.0272 66.685 59.8107C68.0431 59.1947 69.2383 60.7142 67.8876 61.6924ZM45.0556 20.5119C45.0556 16.6253 45.211 14.3366 43.9343 12.3728C42.802 10.7562 40.8518 9.78551 38.1282 9.93858C35.1752 10.1029 32.0039 12.0555 31.1972 15.6359C31.0381 16.4573 30.5644 17.2637 29.5801 17.4392L20.5694 16.2818C19.9255 16.1325 18.9449 15.6359 19.2668 14.3366C21.2022 4.06205 29.902 0.481622 38.1319 0H40.0636C44.5782 0 50.3806 1.30299 54.0922 4.71915C58.5957 8.9604 58.1146 14.6577 58.1146 20.8479V35.5093C58.1146 39.9074 59.8835 41.8563 61.6597 44.1487C62.1408 44.9663 62.3073 45.9295 61.4969 46.5941C59.1656 48.6911 56.8006 50.7498 54.403 52.7693C53.7554 53.2659 52.5935 53.3181 52.1457 52.9373C49.2963 50.5292 48.6006 49.1926 46.8355 46.7472C43.7641 49.9991 41.1848 51.7949 38.1171 52.7693C35.9598 53.3216 33.7411 53.5927 31.5154 53.5758C23.7814 53.5758 17.6571 48.711 17.6571 39.0898C17.6571 31.4398 21.6906 26.2391 27.6484 23.7787C33.6062 21.3146 42.2654 20.5268 45.0556 20.5119ZM43.2904 39.8962C45.2147 36.6406 45.0556 33.9749 45.0556 28.005C42.6428 28.005 40.2227 28.173 38.1319 28.6696C34.2649 29.8008 31.1935 32.2537 31.1935 37.462C31.1935 41.5315 33.2954 44.3017 36.8405 44.3017C37.3289 44.3017 37.7582 44.242 38.1282 44.1337C40.6076 43.4393 42.1544 42.1848 43.2904 39.8962Z" fill="white"/>
</svg>
