<svg width="88" height="60" viewBox="0 0 88 60" fill="none" xmlns="http://www.w3.org/2000/svg">
<path d="M87.9993 28.5996L23.62 56.0116C18.2813 58.2703 13.797 59.4033 10.1707 59.4033C6.06398 59.4033 3.08298 57.9659 1.23498 55.0876C0.0726507 53.2396 -0.268349 50.8966 0.208317 48.0549C0.684984 45.2133 1.95365 42.1883 4.00698 38.9689C5.71932 36.3656 8.52432 32.9446 12.4293 28.7023C11.1048 30.7874 10.1335 33.0768 9.55465 35.4783C8.52798 39.8599 9.45198 43.0756 12.3267 45.1289C13.6943 46.0859 15.5753 46.5663 17.9733 46.5663C19.8873 46.5663 22.0433 46.2583 24.4413 45.6423L87.9993 28.5996Z" fill="white"/>
</svg>
