<svg width="1679" height="736" viewBox="0 0 1679 736" fill="none" xmlns="http://www.w3.org/2000/svg">
<path d="M86.0012 567.509C18.4012 537.789 1.83457 660.041 2.00124 724.882V761L1675 746.553V52.566C1671.83 39.1506 1660.3 10.9783 1639.5 5.61217C1613.5 -1.09551 1600.5 48.9541 1594 75.7848C1587.5 102.616 1607 112.419 1535.5 145.957C1464 179.496 1454.5 112.419 1344.5 112.419C1234.5 112.419 1341 162.985 1325 222.838C1309 282.691 1260 226.45 1250.5 202.715C1241 178.98 1166 202.715 1085 276.499C1069 350.284 984.501 233.157 936.001 202.715C887.501 172.272 919.501 249.668 916.501 299.718C913.501 349.768 893.501 316.745 848.501 276.499C803.501 236.253 838.501 316.745 829.001 316.745C819.501 316.745 770.501 373.503 757.501 316.745C744.501 259.988 663.501 350.284 653.501 400.333C643.501 450.383 592.001 457.09 543.501 457.09C495.001 457.09 498.001 403.945 449.501 373.503C401.001 343.06 417.001 457.09 384.501 487.533C352.001 517.976 336.001 497.337 306.501 457.09C277.001 416.844 229.001 524.167 222.501 567.509C216.001 610.851 170.501 604.659 86.0012 567.509Z" fill="#028F10" fill-opacity="0.05" stroke="#028F10" stroke-width="8"/>
</svg>
